<?xml version="1.0" encoding="utf-8"?>
<!-- Generator: Adobe Illustrator 27.7.0, SVG Export Plug-In . SVG Version: 6.00 Build 0)  -->
<svg version="1.1" id="Layer_1" xmlns="http://www.w3.org/2000/svg" xmlns:xlink="http://www.w3.org/1999/xlink" x="0px" y="0px"
	 viewBox="0 0 40 40" style="enable-background:new 0 0 40 40;" xml:space="preserve">
<style type="text/css">
	.st0{fill:#353C45;}
	.st1{fill:#22252B;}
	.st2{fill:#FF0000;}
	.st3{fill:#FCB91B;}
	.st4{fill:#2FCC36;}
	.st5{fill:#FFFFFF;}
</style>
<g>
	<path class="st0" d="M38.19,8.72v22.56c0,1.05-0.85,1.9-1.9,1.9H3.71c-1.05,0-1.9-0.85-1.9-1.9V8.72c0-1.05,0.85-1.9,1.9-1.9h32.58
		C37.34,6.82,38.19,7.67,38.19,8.72z"/>
	<path class="st1" d="M38.19,8.72v1.9H1.81v-1.9c0-1.05,0.85-1.9,1.9-1.9h32.58C37.34,6.82,38.19,7.67,38.19,8.72z"/>
	<circle class="st2" cx="5.8" cy="8.72" r="0.94"/>
	<circle class="st3" cx="9.46" cy="8.72" r="0.94"/>
	<circle class="st4" cx="13.13" cy="8.72" r="0.94"/>
	<rect x="5.47" y="13.27" class="st5" width="1.17" height="1.17"/>
	<rect x="5.47" y="15.55" class="st5" width="1.17" height="1.17"/>
	<rect x="5.47" y="17.83" class="st5" width="1.17" height="1.17"/>
	<rect x="5.47" y="20.11" class="st5" width="1.17" height="1.17"/>
	<rect x="5.47" y="22.39" class="st5" width="1.17" height="1.17"/>
	<rect x="5.47" y="24.66" class="st5" width="1.17" height="1.17"/>
	<rect x="5.47" y="26.94" class="st5" width="1.17" height="1.17"/>
	<rect x="5.47" y="29.22" class="st5" width="1.17" height="1.17"/>
	<g>
		<rect x="9.56" y="13.27" class="st4" width="12.83" height="1.17"/>
		<rect x="9.56" y="15.55" class="st3" width="3.82" height="1.17"/>
		<rect x="14.65" y="15.55" class="st2" width="3.82" height="1.17"/>
		<rect x="19.01" y="20.11" class="st2" width="1.63" height="1.17"/>
		<rect x="20.92" y="26.94" class="st4" width="8.63" height="1.17"/>
		<rect x="9.56" y="17.83" class="st3" width="18.6" height="1.17"/>
		<rect x="9.56" y="20.11" class="st4" width="8.62" height="1.17"/>
		<rect x="9.56" y="22.39" class="st4" width="16.17" height="1.17"/>
		<rect x="9.56" y="24.66" class="st3" width="22.72" height="1.17"/>
		<rect x="9.56" y="26.94" class="st2" width="10.65" height="1.17"/>
		<rect x="9.56" y="29.22" class="st3" width="16.31" height="1.17"/>
	</g>
</g>
</svg>
